<svg width="64" height="64" viewBox="0 0 64 64" fill="none" xmlns="http://www.w3.org/2000/svg">
<rect width="64" height="64" rx="14" fill="url(#paint0_linear_15_13)"/>
<rect x="0.5" y="0.5" width="63" height="63" rx="13.5" stroke="white" stroke-opacity="0.1"/>
<path d="M30.239 14.0018V19.4512C24.1187 20.3299 19.413 25.5952 19.413 31.9558C19.413 38.9317 25.0678 44.5867 32.0433 44.5867C34.8797 44.5867 37.4996 43.652 39.6071 42.0714L43.4629 45.9274C40.3522 48.4717 36.3737 50 32.0433 50C22.078 50 14 41.9216 14 31.9558C14 22.5999 21.1217 14.9058 30.239 14.0018ZM49.9964 33.7602C49.6355 37.3889 48.2029 40.7018 46.0142 43.3742L42.1584 39.5199C43.398 37.8671 44.2388 35.9003 44.5455 33.7602H49.9964ZM33.8512 14.0018C42.3749 14.8481 49.152 21.6273 50 30.1514H44.5473C43.757 24.6208 39.3815 20.2451 33.8512 19.453V14.0018Z" fill="white"/>
<path d="M31.739 14.0018V12.3457L30.091 12.5091C20.2138 13.4885 12.5 21.8213 12.5 31.9558C12.5 42.75 21.2495 51.5 32.0433 51.5C36.7327 51.5 41.044 49.8437 44.4126 47.0885L45.6958 46.039L44.5236 44.8668L40.6677 41.0107L39.7478 40.0908L38.707 40.8714C36.8509 42.2635 34.5449 43.0867 32.0433 43.0867C25.8963 43.0867 20.913 38.1033 20.913 31.9558C20.913 26.3523 25.0594 21.7102 30.4522 20.9359L31.739 20.7512V19.4512V14.0018ZM51.489 33.9087L51.653 32.2602H49.9964H44.5455H43.2452L43.0607 33.5474C42.7905 35.4324 42.0503 37.1639 40.9584 38.62L40.1777 39.6609L41.0979 40.5808L44.9538 44.435L46.1252 45.606L47.1747 44.3246C49.5454 41.43 51.0981 37.8398 51.489 33.9087ZM33.9994 12.5091L32.3512 12.3455V14.0018V19.453V20.7534L33.6386 20.9378C38.5093 21.6355 42.3664 25.493 43.0624 30.3636L43.2464 31.6514H44.5473H50H51.6566L51.4926 30.0029C50.5739 20.7681 43.2346 13.4261 33.9994 12.5091Z" stroke="white" stroke-opacity="0.2" stroke-width="3"/>
<defs>
<linearGradient id="paint0_linear_15_13" x1="32" y1="0" x2="32" y2="64" gradientUnits="userSpaceOnUse">
<stop stop-color="#04C88F"/>
<stop offset="1" stop-color="#00734D"/>
</linearGradient>
</defs>
</svg>
